<?xml version="1.0" encoding="UTF-8" standalone="no"?>
<!-- Generator: Adobe Illustrator 16.0.4, SVG Export Plug-In . SVG Version: 6.00 Build 0)  -->

<svg
   xmlns:dc="http://purl.org/dc/elements/1.1/"
   xmlns:cc="http://creativecommons.org/ns#"
   xmlns:rdf="http://www.w3.org/1999/02/22-rdf-syntax-ns#"
   xmlns:svg="http://www.w3.org/2000/svg"
   xmlns="http://www.w3.org/2000/svg"
   xmlns:sodipodi="http://sodipodi.sourceforge.net/DTD/sodipodi-0.dtd"
   xmlns:inkscape="http://www.inkscape.org/namespaces/inkscape"
   version="1.1"
   id="Layer_1"
   x="0px"
   y="0px"
   width="728px"
   height="224px"
   viewBox="0 0 728 224"
   enable-background="new 0 0 728 224"
   xml:space="preserve"
   sodipodi:docname="granax.svg"
   inkscape:version="0.92.1 r15371"
   inkscape:export-filename="/home/bookchin/Code/docstrap/template/static/img/granax.png"
   inkscape:export-xdpi="96"
   inkscape:export-ydpi="96"><metadata
     id="metadata4742"><rdf:RDF><cc:Work
         rdf:about=""><dc:format>image/svg+xml</dc:format><dc:type
           rdf:resource="http://purl.org/dc/dcmitype/StillImage" /><dc:title>Group 2</dc:title></cc:Work></rdf:RDF></metadata><defs
     id="defs4740" /><sodipodi:namedview
     pagecolor="#ffffff"
     bordercolor="#666666"
     borderopacity="1"
     objecttolerance="10"
     gridtolerance="10"
     guidetolerance="10"
     inkscape:pageopacity="0"
     inkscape:pageshadow="2"
     inkscape:window-width="1916"
     inkscape:window-height="1032"
     id="namedview4738"
     showgrid="false"
     inkscape:zoom="0.93475275"
     inkscape:cx="319.6594"
     inkscape:cy="31.010983"
     inkscape:window-x="0"
     inkscape:window-y="46"
     inkscape:window-maximized="0"
     inkscape:current-layer="text4828-9" /><title
     id="title4707">Group 2</title><desc
     id="desc4709">Created with Sketch.</desc><path
     style="fill:#4ba027;fill-opacity:1;stroke-width:0.15142824"
     d="m 28.504373,200.84923 c -0.785828,-4.30617 -0.994901,-10.26134 -0.490203,-13.96257 0.448102,-3.28611 1.587453,-7.5823 2.45655,-9.26294 0.426253,-0.82428 -0.104168,-0.42753 -2.109627,1.57797 -3.63702,3.63709 -6.674534,7.80448 -9.381071,12.87059 -0.43359,0.81159 -0.840073,1.47599 -0.903295,1.47642 -0.06322,0 -1.545982,-0.71532 -3.295018,-1.59061 l -3.180082,-1.59142 0.457167,-0.90565 c 2.443693,-4.84091 6.562103,-10.74923 9.895702,-14.19647 0.868392,-0.898 1.26129,-1.40071 1.094728,-1.40071 -0.142895,0 -0.919518,0.16686 -1.725828,0.37081 -2.180816,0.55162 -4.94489,1.08897 -7.750279,1.50668 -2.490397,0.37082 -6.3372507,0.77401 -6.4289625,0.67382 -0.07313,-0.0799 -0.5551521,-7.12622 -0.4917997,-7.18958 0.0303,-0.0303 1.0717816,-0.1571 2.3143756,-0.28176 2.5782266,-0.25865 6.0635146,-0.80927 8.6590286,-1.368 2.578808,-0.55514 6.42789,-1.61782 6.288451,-1.73616 -0.06584,-0.0559 -0.903328,-0.32559 -1.861115,-0.59937 -1.912855,-0.5468 -5.218773,-1.76188 -7.348538,-2.70094 -1.189674,-0.52455 -5.9646946,-2.86368 -6.103069,-2.98969 -0.038654,-0.0352 3.212323,-6.16845 3.39745,-6.40956 0.02268,-0.0296 0.91431,0.38975 1.981309,0.93187 1.067008,0.54212 2.912808,1.40143 4.101779,1.90959 2.094763,0.89527 5.636787,2.18841 5.636787,2.05789 0,-0.0353 -0.404526,-0.80545 -0.898938,-1.71137 -3.107148,-5.69324 -5.757367,-12.92296 -7.199051,-19.63875 -1.088709,-5.07152 -1.569535,-9.21817 -1.694577,-14.61394 -0.482922,-20.83924 7.494938,-40.690029 22.305025,-55.500116 11.612399,-11.612398 26.075424,-18.829586 41.54742,-20.732559 7.249046,-0.891594 13.289999,-0.738553 32.329928,0.819044 11.25445,0.920692 12.32759,0.977516 18.54996,0.982233 6.87243,0.0052 9.44127,-0.230207 13.40005,-1.228025 8.87274,-2.236399 21.15886,-11.827759 31.15918,-24.324947 0.58487,-0.730881 1.0882,-1.304058 1.11853,-1.273729 0.0303,0.03033 -0.62827,2.971927 -1.46358,6.536881 -0.83529,3.564954 -1.49634,6.504115 -1.46899,6.531468 0.0273,0.02735 2.31177,0.09669 5.07649,0.154075 2.76472,0.05739 5.02677,0.133306 5.02677,0.168707 0,0.0354 -1.811,3.097051 -4.02446,6.803666 -2.21345,3.706615 -3.98712,6.776624 -3.94152,6.822242 0.0456,0.04561 2.77413,0.196042 6.06333,0.334276 3.2892,0.138234 6.01652,0.287493 6.06071,0.331684 0.0442,0.04419 -0.64717,0.721874 -1.53636,1.50596 -2.11543,1.865385 -6.11653,5.862112 -7.89247,7.883835 -6.91893,7.876544 -10.42291,14.937652 -11.71845,23.614697 -0.32025,2.144855 -0.34813,2.82817 -0.3425,8.392107 0.006,5.409094 0.0578,6.705165 0.48933,12.114251 0.67865,8.50744 0.78786,10.63395 0.78953,15.37256 0.006,17.05843 -3.44574,31.21963 -10.49136,43.04224 -3.48743,5.85192 -9.46719,12.88327 -15.10477,17.76109 -10.32263,8.93147 -22.94143,14.93546 -36.41227,17.32484 -3.562838,0.63198 -5.920879,0.88816 -10.106475,1.09804 -15.916051,0.79809 -32.314354,-3.80119 -45.691332,-12.81518 -1.122432,-0.75636 -2.132467,-1.43244 -2.244513,-1.50242 -0.314133,-0.19616 0.151756,0.63576 1.555302,2.77723 1.454664,2.21947 3.263802,4.57046 4.868026,6.32604 l 1.145158,1.25318 -2.119331,2.22966 c -1.165623,1.22631 -2.321279,2.42123 -2.568129,2.65537 l -0.448806,0.4257 -1.330915,-1.48569 c -3.676255,-4.10381 -6.856886,-8.73015 -8.893063,-12.93528 -0.436891,-0.90227 -0.842563,-1.64239 -0.901502,-1.64472 -0.144393,-0.006 -0.698358,1.87883 -1.044781,3.55431 -0.857534,4.14756 -0.791135,8.95788 0.207836,15.05693 0.02719,0.16616 -0.691414,0.36344 -3.068741,0.84249 -1.707352,0.34402 -3.319218,0.66926 -3.581914,0.72276 l -0.47764,0.0973 z m 66.915706,-17.91259 c 6.303481,-0.48141 13.118681,-2.15903 19.155671,-4.71529 7.83196,-3.31631 15.6344,-8.7842 21.05097,-14.75234 6.66393,-7.3425 9.89498,-12.64852 12.57042,-20.64312 2.38459,-7.12548 3.47742,-13.90559 3.71895,-23.07287 0.11138,-4.22786 -0.0502,-8.05813 -0.68964,-16.34434 -0.6704,-8.687844 -0.84542,-13.630837 -0.63033,-17.802552 0.0973,-1.887648 0.21895,-3.602445 0.27028,-3.810659 0.21659,-0.878546 -0.27461,0.04212 -1.15249,2.160142 -1.7796,4.293506 -3.38608,9.708154 -4.54824,15.329818 -0.25827,1.249281 -1.0128,5.474131 -1.67674,9.388561 -1.80496,10.64149 -2.75229,14.9807 -4.32544,19.81255 -2.59302,7.96429 -6.87736,16.18493 -12.09116,23.20006 -4.11793,5.54063 -9.45188,10.87444 -14.98814,14.98772 -9.95388,7.39545 -22.232641,12.22373 -35.861464,14.10155 -1.059874,0.14603 -1.875904,0.31414 -1.813396,0.37357 0.183572,0.17456 3.483872,0.87075 5.981811,1.26186 4.997998,0.78253 9.569154,0.94233 15.028938,0.52534 z M 77.182454,170.60309 c 4.650141,-0.43375 9.861913,-1.42729 13.921918,-2.65397 7.490032,-2.26303 14.780888,-6.09429 20.765978,-10.91228 9.50389,-7.65061 17.49046,-19.2377 21.48834,-31.17575 1.83728,-5.48629 2.70867,-9.31072 4.53715,-19.91282 1.94969,-11.304956 2.82503,-15.357004 4.55281,-21.075535 0.74565,-2.46796 2.35596,-6.949681 3.10825,-8.65075 0.20263,-0.458181 0.34462,-0.856856 0.31553,-0.885944 -0.0785,-0.07853 -3.66294,4.470436 -5.60365,7.111599 -4.6929,6.38669 -9.77741,14.314104 -18.47223,28.80063 -5.64942,9.41255 -7.52538,12.38183 -10.11564,16.01116 -5.57554,7.81211 -11.902449,15.13036 -17.830898,20.62477 -8.855155,8.20684 -16.982772,13.84496 -26.85217,18.62732 -2.335029,1.13147 -6.303371,2.81119 -8.20721,3.47395 -0.157676,0.0549 -0.257799,0.12867 -0.222495,0.16397 0.05888,0.0589 3.828682,0.46306 5.430582,0.58223 2.245888,0.16707 10.921181,0.0825 13.183735,-0.12858 z M 48.94414,160.01103 c 8.173289,-0.91319 15.439721,-3.08419 23.307419,-6.96357 7.626932,-3.76067 13.809495,-7.99282 20.759771,-14.21067 4.589803,-4.10613 8.19152,-7.94198 12.46806,-13.27856 4.36041,-5.44124 7.39097,-9.88247 14.68799,-21.52493 2.36748,-3.77733 6.59778,-10.445358 9.40068,-14.817848 2.8029,-4.372491 6.28954,-9.892049 7.74808,-12.265687 2.82134,-4.591453 8.45382,-14.005779 8.45382,-14.130009 0,-0.04086 -1.31237,0.524875 -2.91638,1.257176 -12.54919,5.729232 -24.78809,8.953551 -35.42946,9.333834 -2.45769,0.08783 -7.04241,-0.03453 -6.89298,-0.18397 0.0312,-0.03117 1.04043,-0.19851 2.2428,-0.371862 8.20985,-1.183666 17.74375,-4.843426 27.24749,-10.459451 l 1.89285,-1.11854 -5.22427,-0.09204 c -5.80361,-0.102242 -7.2935,-0.189844 -17.86853,-1.050638 -13.867077,-1.128761 -15.455594,-1.219115 -21.427095,-1.218767 -4.593856,3.03e-4 -7.413126,0.190756 -10.297124,0.695737 -11.519868,2.017103 -22.022986,7.476492 -30.718622,15.967166 -7.331258,7.158447 -12.535348,15.442152 -15.702155,24.994169 -1.024603,3.0905 -1.642714,5.46496 -2.178957,8.37034 -2.087942,11.31251 -1.065787,22.99397 2.946769,33.67654 0.778605,2.07285 1.819193,4.44158 1.951213,4.44158 0.05708,0 0.296592,-0.80068 0.532296,-1.77928 3.681103,-15.28317 12.415702,-30.70058 24.158999,-42.643 2.277294,-2.3159 6.618831,-6.335574 8.107627,-7.506542 0.291113,-0.228965 0.293496,-0.226458 0.06167,0.06465 -0.132659,0.166571 -1.192828,1.427211 -2.355945,2.801423 -5.926508,7.002149 -11.48241,15.974869 -14.882063,24.034389 -3.464758,8.21387 -5.518051,16.08365 -6.470859,24.80122 -0.288484,2.63951 -0.385379,10.4872 -0.152836,12.37926 l 0.125623,1.02214 2.221509,-0.002 c 1.221834,-7.6e-4 3.113012,-0.10107 4.202614,-0.22281 z"
     id="path4809-3"
     inkscape:connector-curvature="0" /><g
     aria-label="GRANAX"
     style="font-style:normal;font-weight:normal;font-size:117.63513184px;line-height:125%;font-family:sans-serif;letter-spacing:0px;word-spacing:0px;fill:#85559f;fill-opacity:1;stroke:none;stroke-width:2.94087839px;stroke-linecap:butt;stroke-linejoin:miter;stroke-opacity:1"
     id="text4828-9"><path
       d="m 248.71738,94.259383 q -2.99969,-2.117433 -6.41111,-3.293784 -3.41142,-1.176351 -7.29338,-1.176351 -4.88186,0 -8.94027,1.882162 -4.05841,1.823344 -6.99929,4.999493 -2.88206,3.176149 -4.52895,7.469827 -1.64689,4.23487 -1.64689,9.05791 0,4.82304 1.64689,9.0579 1.64689,4.23487 4.52895,7.41102 2.94088,3.11733 6.99929,4.94067 4.05841,1.82335 8.94027,1.82335 2.05862,0 4.05841,-0.29409 2.05862,-0.29409 4.3525,-0.76463 v -15.4102 q 0,-1.11753 0.647,-1.82335 0.64699,-0.76462 1.94098,-0.76462 h 15.99837 q 0.88227,0 1.88217,0.70581 0.99989,0.70581 0.99989,1.88216 v 28.4677 q 0,1.58808 -1.7057,2.58797 -2.76443,1.88217 -6.11703,3.23497 -3.3526,1.3528 -6.99929,2.23507 -3.64669,0.88226 -7.41102,1.29398 -3.7055,0.47054 -7.23456,0.47054 -6.23466,0 -11.99878,-1.58807 -5.7053,-1.58807 -10.7048,-4.52895 -4.99949,-2.94088 -9.11672,-6.99929 -4.05841,-4.11723 -6.99929,-9.05791 -2.94088,-4.99949 -4.52895,-10.70479 -1.58808,-5.76413 -1.58808,-11.99879 0,-6.23466 1.58808,-11.93996 1.58807,-5.764126 4.52895,-10.763619 2.94088,-5.05831 6.99929,-9.17554 4.11723,-4.11723 9.11672,-6.99929 4.9995,-2.940879 10.7048,-4.528953 5.76412,-1.646892 11.99878,-1.646892 7.05811,0 13.29277,1.999797 6.29348,1.94098 11.82233,5.646487 0.9999,0.588175 1.52926,1.588074 0.52936,0.941081 -0.23527,2.17625 l -9.52844,13.76331 q -0.76463,0.941082 -1.52926,1.293987 -0.76463,0.294088 -2.05862,-0.529358 z"
       style="font-style:normal;font-variant:normal;font-weight:normal;font-stretch:normal;font-family:COCOGOOSE;-inkscape-font-specification:COCOGOOSE;fill:#85559f;fill-opacity:1;stroke-width:2.94087839px"
       id="path4896" /><path
       d="m 281.94931,72.320431 q 0,-1.235169 0.64699,-1.94098 0.64699,-0.764628 1.94098,-0.764628 h 37.99615 q 6.05821,0 11.35179,2.293885 5.29358,2.235067 9.23436,6.117027 3.94077,3.881959 6.17584,9.116722 2.29389,5.175946 2.29389,11.057703 0,3.99959 -1.11754,7.64628 -1.05871,3.58787 -2.99969,6.76402 -1.94098,3.11733 -4.64659,5.70531 -2.64679,2.52915 -5.82294,4.3525 l 15.11611,28.4677 q 0.41173,0.82344 1.05872,1.94098 0.64699,1.11753 0.64699,1.94098 0,0.94108 -0.64699,1.47044 -0.58817,0.47054 -1.64689,0.47054 h -20.17443 q -0.99989,0 -1.82334,-0.58818 -0.76463,-0.58817 -0.9999,-1.58807 l -14.29267,-26.87963 h -9.52844 v 26.52672 q 0,2.52916 -2.70561,2.52916 h -17.46882 q -1.17635,0 -1.88216,-0.58818 -0.70581,-0.64699 -0.70581,-1.94098 z m 46.05415,26.114999 q 0,-1.764527 -0.64699,-3.529054 -0.64699,-1.764527 -1.82335,-3.234966 -1.17635,-1.470439 -2.82324,-2.470338 -1.64689,-0.999898 -3.64669,-1.293986 -1.64689,-0.117635 -3.11733,-0.176453 -1.41162,-0.117635 -3.11733,-0.117635 h -8.11682 v 21.586042 h 10.82243 q 1.05871,0 1.88216,-0.0588 0.82345,-0.0588 1.82335,-0.17646 2.05861,-0.23527 3.7055,-1.17635 1.64689,-0.9999 2.76443,-2.41152 1.11753,-1.47044 1.70571,-3.23496 0.58817,-1.82335 0.58817,-3.70551 z"
       style="font-style:normal;font-variant:normal;font-weight:normal;font-stretch:normal;font-family:COCOGOOSE;-inkscape-font-specification:COCOGOOSE;fill:#85559f;fill-opacity:1;stroke-width:2.94087839px"
       id="path4898" /><path
       d="m 389.54134,71.908708 q 0.0588,-0.352906 0.35291,-0.764629 0.3529,-0.411723 0.82344,-0.764628 0.47054,-0.352905 0.9999,-0.529358 0.52936,-0.23527 0.9999,-0.23527 h 15.0573 q 0.9999,0 1.70571,0.646993 0.70581,0.588176 1.05871,1.058716 l 1.47044,3.352601 30.87923,79.638987 q 0.47054,1.17635 -0.17646,1.94098 -0.64699,0.70581 -2.23507,0.70581 h -16.88064 q -1.3528,0 -2.11743,-0.47054 -0.70581,-0.52936 -1.11753,-1.70571 -1.17635,-2.9997 -2.29389,-5.94058 -1.11753,-2.99969 -2.23507,-5.99939 h -31.23212 q -1.11754,2.9997 -2.29389,5.99939 -1.11753,2.94088 -2.23507,5.94058 -0.76462,2.17625 -2.99969,2.17625 h -17.35118 q -1.11754,0 -1.88217,-0.58818 -0.70581,-0.58817 -0.23527,-1.76452 z m 10.7048,25.173918 q -1.11753,2.999694 -2.29389,6.469934 -1.11753,3.47023 -2.23506,6.99929 -1.11754,3.52905 -2.29389,6.99929 -1.11753,3.41142 -2.23507,6.41111 h 18.057 z"
       style="font-style:normal;font-variant:normal;font-weight:normal;font-stretch:normal;font-family:COCOGOOSE;-inkscape-font-specification:COCOGOOSE;fill:#85559f;fill-opacity:1;stroke-width:2.94087839px"
       id="path4900" /><path
       d="m 454.84355,72.202796 q 0,-1.058717 0.647,-1.823345 0.64699,-0.764628 1.94098,-0.764628 h 19.23334 q 0.82345,0 1.70571,0.411723 0.88226,0.411723 1.52926,1.411621 7.46983,12.057601 14.82202,23.762297 7.3522,11.704696 14.88085,23.762296 V 71.84989 q 0.23527,-1.058716 0.94108,-1.646892 0.70581,-0.588175 1.64689,-0.588175 h 16.76301 q 1.23517,0 2.05861,0.70581 0.82345,0.646994 0.82345,1.882163 v 82.462224 q 0,1.17635 -0.70581,1.76453 -0.70581,0.52936 -1.94098,0.52936 h -18.76281 q -0.76462,0 -1.3528,-0.52936 -0.58817,-0.52936 -1.23517,-1.41162 -7.82273,-12.93987 -15.46902,-25.58564 -7.64628,-12.64578 -15.52784,-25.58564 v 50.52429 q 0,1.29398 -0.58817,1.94097 -0.58818,0.647 -2.11743,0.647 h -16.70419 q -1.35281,0 -1.9998,-0.70581 -0.58818,-0.76463 -0.58818,-1.82335 z"
       style="font-style:normal;font-variant:normal;font-weight:normal;font-stretch:normal;font-family:COCOGOOSE;-inkscape-font-specification:COCOGOOSE;fill:#85559f;fill-opacity:1;stroke-width:2.94087839px"
       id="path4902" /><path
       d="m 576.10331,71.908708 q 0.0588,-0.352906 0.3529,-0.764629 0.35291,-0.411723 0.82345,-0.764628 0.47054,-0.352905 0.9999,-0.529358 0.52936,-0.23527 0.9999,-0.23527 h 15.05729 q 0.9999,0 1.70571,0.646993 0.70581,0.588176 1.05872,1.058716 l 1.47044,3.352601 30.87922,79.638987 q 0.47054,1.17635 -0.17645,1.94098 -0.64699,0.70581 -2.23507,0.70581 h -16.88064 q -1.3528,0 -2.11743,-0.47054 -0.70581,-0.52936 -1.11754,-1.70571 -1.17635,-2.9997 -2.29388,-5.94058 -1.11754,-2.99969 -2.23507,-5.99939 h -31.23213 q -1.11753,2.9997 -2.29388,5.99939 -1.11754,2.94088 -2.23507,5.94058 -0.76463,2.17625 -2.9997,2.17625 H 546.2828 q -1.11753,0 -1.88216,-0.58818 -0.70581,-0.58817 -0.23527,-1.76452 z m 10.7048,25.173918 q -1.11754,2.999694 -2.29389,6.469934 -1.11753,3.47023 -2.23507,6.99929 -1.11753,3.52905 -2.29388,6.99929 -1.11754,3.41142 -2.23507,6.41111 h 18.05699 z"
       style="font-style:normal;font-variant:normal;font-weight:normal;font-stretch:normal;font-family:COCOGOOSE;-inkscape-font-specification:COCOGOOSE;fill:#85559f;fill-opacity:1;stroke-width:2.94087839px"
       id="path4904" /><path
       d="m 632.64169,155.42965 q 0.47054,-0.88226 0.94108,-1.76453 0.52936,-0.94108 1.17635,-1.88216 l 26.46791,-39.5254 q -6.76402,-10.17544 -13.41041,-20.11561 -6.58757,-9.940168 -13.35159,-20.115607 -0.3529,-0.470541 -0.58817,-0.882264 -0.17646,-0.411723 -0.23527,-0.882263 0.11763,-0.470541 0.64699,-0.411723 0.58818,0 1.17635,-0.294088 h 20.46851 q 2.17625,0 3.41142,2.235068 l 14.41031,21.644864 14.58675,-21.644864 q 1.23517,-2.235068 3.41142,-2.235068 h 18.46872 q 0.47054,0 1.11753,0 0.64699,0 1.17635,0.05882 0.58818,0 0.9999,0.176452 0.41172,0.176453 0.41172,0.529358 0,0.705811 -0.64699,1.529257 l -27.05608,40.40767 27.58544,41.17229 q 0.58817,0.82345 0.88226,1.52926 0.35291,0.64699 0.29409,1.11753 0,0.88227 -1.05872,0.88227 h -21.05668 q -0.9999,0 -1.82335,-0.58818 -0.82344,-0.58817 -1.29399,-1.58807 l -15.99837,-23.70348 -15.82193,23.70348 q -0.47054,0.9999 -1.29398,1.58807 -0.82345,0.58818 -1.82335,0.58818 h -20.05679 -1.05872 q -0.47054,0 -0.82344,-0.23527 -0.35291,-0.29409 -0.35291,-0.76463 0,-0.29409 0.11764,-0.52936 z"
       style="font-style:normal;font-variant:normal;font-weight:normal;font-stretch:normal;font-family:COCOGOOSE;-inkscape-font-specification:COCOGOOSE;fill:#85559f;fill-opacity:1;stroke-width:2.94087839px"
       id="path4906" /></g></svg>