<?xml version="1.0" encoding="UTF-8" standalone="no"?>
<svg width="728px" height="224px" viewBox="0 0 728 224" version="1.1" xmlns="http://www.w3.org/2000/svg" xmlns:xlink="http://www.w3.org/1999/xlink">
    <!-- Generator: Sketch 3.8.2 (29753) - http://www.bohemiancoding.com/sketch -->
    <title>Group 2</title>
    <desc>Created with Sketch.</desc>
    <defs></defs>
    <g id="Page-1" stroke="none" stroke-width="1" fill="none" fill-rule="evenodd">
        <g id="Group-2">
            <g id="logo-blue" fill="#2683FF">
                <g id="Page-1">
                    <g id="logo-blue-copy">
                        <g id="Group" transform="translate(241.000000, 80.000000)">
                            <path d="M18.592,13.933 C17.33,14.971 16.7,16.344 16.7,18.053 C16.7,19.763 17.471,21.121 19.012,22.131 C20.553,23.139 24.112,24.331 29.688,25.703 C35.265,27.076 39.594,29.135 42.677,31.881 C45.758,34.627 47.301,38.634 47.301,43.902 C47.301,49.172 45.325,53.443 41.374,56.721 C37.423,60 32.224,61.639 25.78,61.639 C16.477,61.639 8.098,58.192 0.645,51.299 L8.463,41.717 C14.795,47.265 20.651,50.039 26.032,50.039 C28.44,50.039 30.332,49.519 31.706,48.483 C33.078,47.446 33.766,46.045 33.766,44.28 C33.766,42.514 33.037,41.114 31.58,40.077 C30.122,39.04 27.236,37.99 22.922,36.924 C16.083,35.299 11.082,33.183 7.917,30.577 C4.75,27.972 3.167,23.881 3.167,18.304 C3.167,12.728 5.17,8.428 9.178,5.401 C13.184,2.374 18.186,0.861 24.183,0.861 C28.105,0.861 32.029,1.533 35.953,2.878 C39.874,4.224 43.293,6.129 46.208,8.596 L39.567,18.178 C34.466,14.311 29.199,12.378 23.763,12.378 C21.576,12.378 19.853,12.897 18.592,13.933 L18.592,13.933 L18.592,13.933 Z" id="Shape"></path>
                            <polygon id="Shape" points="79.83 13.556 79.83 60.967 66.717 60.967 66.717 13.556 50.073 13.556 50.073 2.207 96.475 2.207 96.475 13.556"></polygon>
                            <path d="M150.864,52.854 C144.923,58.655 137.609,61.556 128.922,61.556 C120.235,61.556 112.922,58.655 106.981,52.854 C101.041,47.054 98.071,39.839 98.071,31.208 C98.071,22.577 101.041,15.361 106.981,9.562 C112.922,3.762 120.234,0.861 128.922,0.861 C137.609,0.861 144.923,3.762 150.864,9.562 C156.803,15.363 159.774,22.578 159.774,31.208 C159.774,39.838 156.803,47.055 150.864,52.854 L150.864,52.854 L150.864,52.854 Z M146.408,31.25 C146.408,26.012 144.726,21.542 141.364,17.843 C138.002,14.144 133.868,12.295 128.966,12.295 C124.061,12.295 119.929,14.145 116.567,17.843 C113.205,21.541 111.524,26.011 111.524,31.25 C111.524,36.492 113.205,40.947 116.567,44.615 C119.93,48.288 124.061,50.123 128.966,50.123 C133.869,50.123 138.002,48.288 141.364,44.615 C144.727,40.947 146.408,36.491 146.408,31.25 L146.408,31.25 L146.408,31.25 Z" id="Shape"></path>
                            <path d="M215.507,21.71 C215.507,31.125 211.779,37.206 204.327,39.952 L219.205,60.967 L203.065,60.967 L190.036,42.221 L180.956,42.221 L180.956,60.967 L167.843,60.967 L167.843,2.208 L190.12,2.208 C199.253,2.208 205.768,3.75 209.663,6.831 C213.559,9.913 215.507,14.872 215.507,21.71 L215.507,21.71 L215.507,21.71 Z M199.703,28.687 C201.327,27.23 202.14,24.918 202.14,21.752 C202.14,18.586 201.3,16.413 199.619,15.237 C197.939,14.059 194.997,13.472 190.792,13.472 L180.957,13.472 L180.957,30.872 L190.541,30.872 C195.022,30.872 198.076,30.145 199.703,28.687 L199.703,28.687 L199.703,28.687 Z" id="Shape"></path>
                            <path d="M227.444,13.471 L227.444,2.206 L258.042,2.206 L258.042,40.539 C258.042,47.545 256.234,52.785 252.62,56.26 C249.005,59.735 244.368,61.47 238.708,61.47 C231.646,61.47 225.48,58.753 220.213,53.317 L227.022,43.902 C230.554,47.714 234.252,49.619 238.119,49.619 C239.969,49.619 241.552,48.905 242.869,47.475 C244.184,46.046 244.845,43.903 244.845,41.044 L244.845,13.472 L227.444,13.471 L227.444,13.471 L227.444,13.471 L227.444,13.471 Z" id="Shape"></path>
                        </g>
                        <g id="Group">
                            <path d="M198.309,64.922 C198.13,71.914 195.095,77.125 189.238,80.637 C188.157,81.283 187.782,81.941 187.785,83.173 C187.822,102.247 187.819,121.322 187.79,140.392 C187.788,141.538 188.08,142.229 189.131,142.834 C195.907,146.75 199.336,153.973 198.119,161.566 C196.952,168.842 191.136,174.819 183.602,176.25 C179.234,177.083 175.003,176.42 171.175,174.071 C170.008,173.357 169.186,173.483 168.092,174.113 C151.695,183.611 135.28,193.084 118.846,202.521 C117.722,203.168 117.301,203.878 117.304,205.19 C117.321,214.367 110.238,222.353 101.39,223.243 C91.966,224.194 83.634,218.272 81.598,209.127 C81.286,207.721 81.181,206.251 81.149,204.812 C81.125,203.837 80.855,203.24 79.988,202.738 C63.327,193.154 46.68,183.547 30.04,173.926 C29.139,173.401 28.431,173.397 27.522,173.947 C16.649,180.492 2.791,174.218 0.485,161.991 C-0.97,154.267 2.174,147.045 9.087,142.977 C10.179,142.332 10.673,141.683 10.671,140.348 C10.621,121.272 10.629,102.2 10.659,83.127 C10.66,81.981 10.362,81.303 9.313,80.694 C2.373,76.663 -0.892,69.659 0.441,61.795 C1.765,53.983 7.806,48.252 15.668,47.132 C19.882,46.533 23.946,47.301 27.592,49.629 C28.439,50.171 29.068,50.154 29.93,49.657 C46.521,40.056 63.125,30.482 79.742,20.93 C80.747,20.352 81.139,19.689 81.142,18.505 C81.169,8 89.47,-0.042 99.988,0.171 C108.186,0.335 115.857,7.102 117.02,15.192 C117.126,15.936 117.293,16.394 117.293,17.418 C117.293,19.661 118.119,20.612 119.865,21.61 C135.989,30.836 152.068,40.134 168.136,49.448 C169.24,50.09 170.042,50.116 171.192,49.464 C182.106,43.239 195.339,49.205 197.996,61.523 C198.246,62.669 198.222,63.875 198.309,64.922 L198.309,64.922 L198.309,64.922 Z M56.021,130.355 C55.856,130.498 55.745,130.618 55.607,130.695 C46.562,135.922 37.524,141.158 28.446,146.323 C27.944,146.608 26.969,146.549 26.459,146.241 C24.06,144.793 21.505,143.831 18.709,143.756 C9.407,143.518 3.75,151.116 3.432,157.717 C3.064,165.449 8.914,173.369 18.375,173.298 C26.672,173.236 32.986,166.583 32.904,158.282 C32.891,156.799 33.327,155.96 34.628,155.221 C44.268,149.732 53.869,144.177 63.461,138.608 C64.388,138.067 65.134,137.978 66.143,138.454 C72.125,141.266 78.311,141.742 84.688,139.939 C85.322,139.761 86.164,139.941 86.798,140.212 C88.673,141.01 90.464,142.024 92.351,142.782 C93.427,143.218 93.79,143.805 93.788,144.948 C93.755,159.983 93.758,175.014 93.785,190.048 C93.786,191.109 93.452,191.713 92.485,192.176 C87.419,194.618 83.596,200.919 84.639,207.658 C85.849,215.487 93.892,221.399 101.654,219.881 C108.492,218.546 112.984,213.877 113.946,206.695 C114.597,201.824 112.254,195.394 105.99,192.174 C105.14,191.74 104.671,191.265 104.674,190.221 C104.705,175.618 104.708,161.015 104.674,146.415 C104.674,145.117 105.27,144.851 106.407,144.65 C109.407,144.124 112.414,143.543 115.346,142.72 C116.673,142.348 117.721,142.295 119.007,142.849 C125.436,145.614 131.695,145.141 137.683,141.527 C138.538,141.015 139.151,140.992 140.009,141.493 C147.919,146.099 155.842,150.686 163.801,155.204 C165.089,155.933 165.586,156.739 165.548,158.247 C165.318,166.985 172.937,174.123 181.82,173.176 C190.541,172.249 196.72,163.855 194.697,155.367 C192.272,145.195 181.254,140.605 172.354,146.103 C171.416,146.681 170.738,146.839 169.737,146.253 C162.206,141.853 154.657,137.483 147.077,133.168 C145.956,132.531 145.807,131.939 146.164,130.738 C148.45,123.036 146.896,116.184 141.381,110.283 C140.303,109.129 135.245,101.052 134.54,99.563 C133.982,98.385 134.219,97.756 135.341,97.112 C146.834,90.53 158.31,83.915 169.766,77.269 C170.689,76.736 171.315,76.727 172.221,77.335 C175.45,79.502 179.07,80.188 182.868,79.523 C190.261,78.227 195.619,71.537 194.96,63.64 C194.243,55.073 185.84,48.669 177.447,50.527 C170.082,52.158 165.455,57.914 165.54,65.481 C165.552,66.77 165.194,67.505 164.044,68.163 C152.406,74.822 140.797,81.526 129.209,88.27 C128.164,88.877 127.593,88.751 126.752,87.941 C121.292,82.681 114.722,79.727 107.227,78.79 C104.697,78.472 104.696,78.485 104.696,75.874 C104.695,62.188 104.729,48.502 104.655,34.817 C104.645,32.907 105.091,31.8 106.881,30.772 C113.298,27.085 115.737,19.148 112.801,12.38 C109.84,5.553 102.276,1.906 95.182,4.067 C88.725,6.034 85.126,10.595 84.493,17.233 C84.006,22.355 86.429,28.045 92.275,31.24 C93.173,31.73 93.799,32.161 93.795,33.393 C93.747,48.482 93.75,63.568 93.788,78.657 C93.79,79.853 93.245,80.258 92.27,80.752 C89.351,82.223 86.219,83.51 83.741,85.56 C80.882,87.919 78.21,89.283 74.23,89.283 C73.842,89.271 73.592,89.308 73.188,89.3 C72.202,89.279 71.094,89.238 70.287,88.777 C58.548,82.082 46.87,75.277 35.116,68.604 C33.437,67.652 32.627,66.631 32.907,64.697 C33.019,63.926 32.781,63.1 32.655,62.306 C31.508,55.077 24.438,49.03 15.904,50.432 C7.532,51.81 2.216,59.386 3.598,67.495 C5.36,77.851 17.178,83.093 26.094,77.428 C27.1,76.789 27.796,76.739 28.827,77.34 C37.663,82.494 46.536,87.587 55.397,92.7 C56.916,93.577 58.429,94.46 59.938,95.336 C49.759,106.122 48.616,117.707 56.021,130.355 L56.021,130.355 L56.021,130.355 Z" id="Shape"></path>
                            <path d="M80.502,95.502 C82.832,95.708 83.991,94.925 85.693,93.343 C93.041,86.514 101.71,84.4 111.228,87.561 C120.586,90.669 126.389,97.319 128.311,107.075 C128.687,108.985 129.439,110.134 131.145,111.107 C136.025,113.886 138.834,119.898 137.87,124.906 C136.619,131.391 132.367,135.887 126.355,136.84 C123.151,137.351 119.973,136.984 117.155,135.25 C115.892,134.471 114.893,134.556 113.588,135.102 C105.218,138.622 97.112,138.024 89.407,133.179 C88.224,132.432 87.234,132.374 85.953,132.794 C75.096,136.341 63.804,130.179 61.047,119.353 C57.888,106.938 67.791,94.935 80.502,95.502 L80.502,95.502 L80.502,95.502 Z" id="Shape"></path>
                            <path d="M176.143,158.559 C176.143,156.13 177.888,154.366 180.278,154.371 C182.579,154.383 184.54,156.282 184.563,158.53 C184.588,160.694 182.493,162.787 180.312,162.791 C177.977,162.791 176.144,160.932 176.143,158.559 L176.143,158.559 L176.143,158.559 Z" id="Shape"></path>
                            <path d="M95.02,18.24 C95.029,15.888 96.863,14.073 99.233,14.071 C101.607,14.069 103.427,15.88 103.436,18.241 C103.442,20.505 101.465,22.507 99.241,22.479 C96.98,22.457 95.013,20.479 95.02,18.24 L95.02,18.24 L95.02,18.24 Z" id="Shape"></path>
                            <path d="M22.31,158.576 C22.301,160.947 20.452,162.81 18.129,162.791 C15.934,162.77 13.905,160.723 13.895,158.513 C13.884,156.305 15.892,154.371 18.196,154.371 C20.583,154.373 22.319,156.146 22.31,158.576 L22.31,158.576 L22.31,158.576 Z" id="Shape"></path>
                            <path d="M99.279,201.173 C101.647,201.189 103.446,202.99 103.435,205.334 C103.42,207.669 101.594,209.428 99.194,209.413 C96.814,209.401 94.994,207.587 95.02,205.25 C95.047,202.926 96.902,201.155 99.279,201.173 L99.279,201.173 L99.279,201.173 Z" id="Shape"></path>
                            <path d="M18.243,69.122 C15.843,69.143 13.967,67.394 13.896,65.075 C13.825,62.815 15.723,60.918 18.089,60.884 C20.559,60.847 22.275,62.493 22.31,64.928 C22.347,67.375 20.672,69.1 18.243,69.122 L18.243,69.122 L18.243,69.122 Z" id="Shape"></path>
                            <path d="M180.226,69.128 C177.8,69.111 176.119,67.383 176.143,64.936 C176.167,62.507 177.888,60.855 180.358,60.887 C182.726,60.92 184.611,62.8 184.555,65.072 C184.499,67.374 182.61,69.145 180.226,69.128 L180.226,69.128 L180.226,69.128 Z" id="Shape"></path>
                        </g>
                    </g>
                </g>
            </g>
            <path d="M579.51,129.994 C578.561995,131.416007 577.416507,132.758994 576.0735,134.023 C574.730493,135.287006 573.176842,136.392995 571.4125,137.341 C569.648158,138.289005 567.699511,139.039497 565.5665,139.5925 C563.433489,140.145503 561.103013,140.422 558.575,140.422 C554.361646,140.422 550.464351,139.684674 546.883,138.21 C543.301649,136.735326 540.22068,134.694513 537.64,132.0875 C535.05932,129.480487 533.044841,126.386351 531.5965,122.805 C530.148159,119.223649 529.424,115.300021 529.424,111.034 C529.424,106.767979 530.161326,102.844351 531.636,99.263 C533.110674,95.6816488 535.151487,92.587513 537.7585,89.9805 C540.365513,87.373487 543.446482,85.332674 547.0015,83.858 C550.556518,82.383326 554.414313,81.646 558.575,81.646 C560.62901,81.646 562.64349,81.8566646 564.6185,82.278 C566.59351,82.6993354 568.449991,83.2918295 570.188,84.0555 C571.926009,84.8191705 573.505993,85.7408279 574.928,86.8205 C576.350007,87.9001721 577.534995,89.1246598 578.483,90.494 L573.743,93.97 C573.163664,93.0746622 572.386838,92.1793378 571.4125,91.284 C570.438162,90.3886622 569.292673,89.5986701 567.976,88.914 C566.659327,88.2293299 565.224174,87.6763354 563.6705,87.255 C562.116826,86.8336646 560.444676,86.623 558.654,86.623 C555.019982,86.623 551.767848,87.2813267 548.8975,88.598 C546.027152,89.9146733 543.591343,91.6921555 541.59,93.9305 C539.588657,96.1688445 538.061339,98.7626519 537.008,101.712 C535.954661,104.661348 535.428,107.76865 535.428,111.034 C535.428,114.29935 535.967828,117.406652 537.0475,120.356 C538.127172,123.305348 539.667657,125.899155 541.669,128.1375 C543.670343,130.375845 546.106152,132.153327 548.9765,133.47 C551.846848,134.786673 555.072649,135.445 558.654,135.445 C561.866683,135.445 564.921319,134.786673 567.818,133.47 C570.714681,132.153327 573.137324,130.046681 575.086,127.15 L579.51,129.994 Z M639.850771,111.034 C639.850771,115.300021 639.113445,119.223649 637.638771,122.805 C636.164097,126.386351 634.123284,129.480487 631.516271,132.0875 C628.909258,134.694513 625.828289,136.735326 622.273271,138.21 C618.718253,139.684674 614.860458,140.422 610.699771,140.422 C606.539083,140.422 602.681289,139.684674 599.126271,138.21 C595.571253,136.735326 592.490284,134.694513 589.883271,132.0875 C587.276258,129.480487 585.235445,126.386351 583.760771,122.805 C582.286097,119.223649 581.548771,115.300021 581.548771,111.034 C581.548771,106.767979 582.286097,102.844351 583.760771,99.263 C585.235445,95.6816488 587.276258,92.587513 589.883271,89.9805 C592.490284,87.373487 595.571253,85.332674 599.126271,83.858 C602.681289,82.383326 606.539083,81.646 610.699771,81.646 C614.860458,81.646 618.718253,82.383326 622.273271,83.858 C625.828289,85.332674 628.909258,87.373487 631.516271,89.9805 C634.123284,92.587513 636.164097,95.6816488 637.638771,99.263 C639.113445,102.844351 639.850771,106.767979 639.850771,111.034 L639.850771,111.034 Z M633.846771,111.034 C633.846771,107.76865 633.32011,104.661348 632.266771,101.712 C631.213432,98.7626519 629.686114,96.1688445 627.684771,93.9305 C625.683428,91.6921555 623.247619,89.9146733 620.377271,88.598 C617.506923,87.2813267 614.281122,86.623 610.699771,86.623 C607.11842,86.623 603.892619,87.2813267 601.022271,88.598 C598.151923,89.9146733 595.716114,91.6921555 593.714771,93.9305 C591.713428,96.1688445 590.18611,98.7626519 589.132771,101.712 C588.079432,104.661348 587.552771,107.76865 587.552771,111.034 C587.552771,114.29935 588.079432,117.406652 589.132771,120.356 C590.18611,123.305348 591.713428,125.885989 593.714771,128.098 C595.716114,130.310011 598.151923,132.074327 601.022271,133.391 C603.892619,134.707673 607.11842,135.366 610.699771,135.366 C614.281122,135.366 617.506923,134.707673 620.377271,133.391 C623.247619,132.074327 625.683428,130.310011 627.684771,128.098 C629.686114,125.885989 631.213432,123.305348 632.266771,120.356 C633.32011,117.406652 633.846771,114.29935 633.846771,111.034 L633.846771,111.034 Z M653.581542,139 L647.893542,139 L647.893542,83.068 L664.325542,83.068 C667.064222,83.068 669.605364,83.3313307 671.949042,83.858 C674.29272,84.3846693 676.320367,85.2404941 678.032042,86.4255 C679.743717,87.6105059 681.073537,89.1509905 682.021542,91.047 C682.969547,92.9430095 683.443542,95.2603196 683.443542,97.999 C683.443542,100.05301 683.074879,101.922658 682.337542,103.608 C681.600205,105.293342 680.599548,106.754827 679.335542,107.9925 C678.071536,109.230173 676.570551,110.217663 674.832542,110.955 C673.094533,111.692337 671.198552,112.166332 669.144542,112.377 L685.497542,139 L678.545542,139 L663.061542,112.851 L653.581542,112.851 L653.581542,139 Z M653.581542,107.953 L663.456542,107.953 C668.038565,107.953 671.567196,107.123508 674.042542,105.4645 C676.517888,103.805492 677.755542,101.317017 677.755542,97.999 C677.755542,96.1556575 677.413212,94.6020063 676.728542,93.338 C676.043872,92.0739937 675.095881,91.047004 673.884542,90.257 C672.673203,89.4669961 671.198551,88.8876685 669.460542,88.519 C667.722533,88.1503315 665.800219,87.966 663.693542,87.966 L653.581542,87.966 L653.581542,107.953 Z M697.095313,133.944 L727.036313,133.944 L727.036313,139 L691.407313,139 L691.407313,83.068 L726.088313,83.068 L726.088313,88.124 L697.095313,88.124 L697.095313,107.4 L724.192313,107.4 L724.192313,112.377 L697.095313,112.377 L697.095313,133.944 Z" id="CORE" fill="#2684FF"></path>
        </g>
    </g>
</svg>