<?xml version="1.0" encoding="utf-8"?>
<!-- Generator: Adobe Illustrator 16.0.4, SVG Export Plug-In . SVG Version: 6.00 Build 0)  -->
<!DOCTYPE svg PUBLIC "-//W3C//DTD SVG 1.1//EN" "http://www.w3.org/Graphics/SVG/1.1/DTD/svg11.dtd">
<svg version="1.1" id="Layer_1" xmlns="http://www.w3.org/2000/svg" xmlns:xlink="http://www.w3.org/1999/xlink" x="0px" y="0px"
	 width="728px" height="224px" viewBox="0 0 728 224" enable-background="new 0 0 728 224" xml:space="preserve">
<title>Group 2</title>
<desc>Created with Sketch.</desc>
<g id="logo-blue">
	<g id="Page-1">
		<g id="logo-blue-copy">
			<g id="Group" transform="translate(241.000000, 80.000000)">
				<path id="Shape" fill="#2683FF" d="M18.592,13.933c-1.262,1.038-1.892,2.411-1.892,4.12c0,1.71,0.771,3.068,2.312,4.078
					c1.541,1.008,5.1,2.2,10.676,3.572c5.577,1.373,9.906,3.432,12.989,6.178c3.081,2.746,4.624,6.753,4.624,12.021
					c0,5.27-1.976,9.541-5.927,12.818c-3.951,3.279-9.15,4.918-15.595,4.918c-9.303,0-17.682-3.447-25.135-10.34l7.818-9.582
					c6.332,5.549,12.188,8.322,17.569,8.322c2.407,0,4.3-0.52,5.674-1.557c1.372-1.037,2.06-2.438,2.06-4.203
					s-0.729-3.166-2.186-4.202c-1.458-1.037-4.345-2.087-8.658-3.153c-6.839-1.625-11.84-3.74-15.005-6.347
					c-3.167-2.605-4.75-6.696-4.75-12.273c0-5.576,2.003-9.876,6.011-12.903c4.006-3.027,9.008-4.54,15.005-4.54
					c3.922,0,7.846,0.672,11.771,2.017c3.921,1.346,7.34,3.251,10.255,5.718l-6.642,9.582c-5.101-3.867-10.367-5.8-15.804-5.8
					C21.576,12.378,19.853,12.897,18.592,13.933L18.592,13.933L18.592,13.933z"/>
				<polygon id="Shape_1_" fill="#2683FF" points="79.83,13.556 79.83,60.967 66.717,60.967 66.717,13.556 50.073,13.556 
					50.073,2.207 96.475,2.207 96.475,13.556 				"/>
				<path id="Shape_2_" fill="#2683FF" d="M150.864,52.854c-5.94,5.801-13.255,8.703-21.941,8.703c-8.688,0-16-2.902-21.941-8.703
					c-5.939-5.799-8.91-13.015-8.91-21.646s2.971-15.847,8.91-21.646c5.941-5.8,13.253-8.701,21.941-8.701
					c8.687,0,16.001,2.901,21.941,8.701c5.939,5.801,8.91,13.016,8.91,21.646S156.803,47.055,150.864,52.854L150.864,52.854
					L150.864,52.854z M146.408,31.25c0-5.238-1.683-9.708-5.045-13.407c-3.361-3.699-7.495-5.548-12.397-5.548
					c-4.905,0-9.037,1.85-12.399,5.548c-3.361,3.698-5.043,8.168-5.043,13.407c0,5.242,1.682,9.697,5.043,13.365
					c3.363,3.673,7.494,5.508,12.399,5.508c4.903,0,9.036-1.835,12.397-5.508C144.727,40.947,146.408,36.491,146.408,31.25
					L146.408,31.25L146.408,31.25z"/>
				<path id="Shape_3_" fill="#2683FF" d="M215.507,21.71c0,9.415-3.729,15.496-11.181,18.242l14.878,21.015h-16.14l-13.029-18.746
					h-9.08v18.746h-13.112V2.208h22.276c9.134,0,15.648,1.542,19.543,4.623C213.559,9.913,215.507,14.872,215.507,21.71
					L215.507,21.71L215.507,21.71z M199.702,28.687c1.624-1.457,2.438-3.769,2.438-6.935s-0.84-5.339-2.521-6.515
					c-1.68-1.178-4.622-1.765-8.827-1.765h-9.835v17.4h9.585C195.022,30.872,198.075,30.145,199.702,28.687L199.702,28.687
					L199.702,28.687z"/>
				<path id="Shape_4_" fill="#2683FF" d="M227.444,13.471V2.206h30.598v38.333c0,7.006-1.808,12.246-5.422,15.721
					s-8.252,5.211-13.912,5.211c-7.062,0-13.228-2.718-18.494-8.154l6.809-9.414c3.532,3.812,7.23,5.717,11.097,5.717
					c1.851,0,3.434-0.715,4.75-2.145c1.315-1.429,1.977-3.572,1.977-6.431V13.472L227.444,13.471L227.444,13.471L227.444,13.471
					L227.444,13.471z"/>
			</g>
			<g id="Group_1_">
				<path id="Shape_5_" fill="#2683FF" d="M198.309,64.922c-0.179,6.992-3.214,12.203-9.071,15.715
					c-1.08,0.646-1.455,1.304-1.452,2.536c0.036,19.074,0.033,38.149,0.005,57.22c-0.002,1.146,0.29,1.836,1.341,2.441
					c6.776,3.916,10.205,11.139,8.988,18.732c-1.167,7.275-6.983,13.252-14.518,14.684c-4.368,0.833-8.599,0.17-12.427-2.18
					c-1.167-0.713-1.989-0.588-3.083,0.043c-16.397,9.498-32.812,18.971-49.246,28.408c-1.124,0.646-1.545,1.356-1.542,2.668
					c0.017,9.178-7.066,17.164-15.914,18.054c-9.424,0.95-17.756-4.972-19.792-14.116c-0.312-1.406-0.417-2.876-0.449-4.314
					c-0.023-0.976-0.294-1.572-1.161-2.074c-16.66-9.584-33.308-19.191-49.947-28.812c-0.901-0.525-1.609-0.529-2.519,0.021
					c-10.873,6.545-24.73,0.271-27.037-11.956c-1.455-7.724,1.689-14.946,8.603-19.015c1.092-0.645,1.586-1.293,1.584-2.629
					c-0.05-19.076-0.042-38.147-0.012-57.221c0.001-1.146-0.298-1.824-1.347-2.433C2.373,76.663-0.892,69.659,0.441,61.795
					c1.324-7.812,7.365-13.543,15.228-14.663c4.214-0.599,8.277,0.169,11.924,2.497c0.847,0.542,1.476,0.525,2.338,0.028
					c16.591-9.601,33.195-19.175,49.812-28.727c1.005-0.578,1.396-1.241,1.399-2.425C81.169,8,89.47-0.042,99.988,0.171
					c8.198,0.164,15.869,6.931,17.032,15.021c0.106,0.744,0.273,1.202,0.273,2.226c0,2.243,0.826,3.194,2.571,4.192
					c16.124,9.226,32.203,18.524,48.271,27.838c1.104,0.642,1.906,0.668,3.056,0.016c10.914-6.225,24.147-0.259,26.805,12.059
					C198.246,62.669,198.222,63.875,198.309,64.922L198.309,64.922L198.309,64.922z M56.021,130.355
					c-0.165,0.143-0.275,0.263-0.414,0.34c-9.045,5.227-18.083,10.463-27.161,15.627c-0.502,0.285-1.477,0.227-1.986-0.081
					c-2.399-1.448-4.954-2.41-7.75-2.485c-9.302-0.238-14.959,7.36-15.277,13.961c-0.368,7.732,5.482,15.652,14.943,15.581
					c8.297-0.062,14.61-6.715,14.528-15.017c-0.013-1.482,0.424-2.321,1.725-3.061c9.64-5.488,19.241-11.043,28.833-16.613
					c0.927-0.541,1.673-0.629,2.682-0.153c5.982,2.812,12.168,3.288,18.545,1.485c0.634-0.178,1.477,0.002,2.11,0.272
					c1.875,0.798,3.666,1.812,5.553,2.569c1.076,0.438,1.439,1.023,1.438,2.166c-0.033,15.035-0.03,30.066-0.003,45.101
					c0.001,1.062-0.333,1.665-1.301,2.128c-5.065,2.442-8.889,8.743-7.846,15.482c1.21,7.828,9.253,13.74,17.015,12.223
					c6.839-1.335,11.33-6.004,12.292-13.186c0.651-4.871-1.691-11.301-7.956-14.521c-0.85-0.434-1.318-0.908-1.315-1.953
					c0.031-14.603,0.034-29.205,0-43.806c0-1.298,0.596-1.563,1.733-1.765c3-0.526,6.007-1.107,8.938-1.93
					c1.327-0.373,2.375-0.426,3.661,0.129c6.429,2.764,12.688,2.291,18.676-1.322c0.855-0.512,1.468-0.535,2.326-0.034
					c7.91,4.606,15.833,9.192,23.792,13.711c1.288,0.729,1.785,1.534,1.747,3.043c-0.23,8.737,7.389,15.876,16.271,14.929
					c8.722-0.927,14.9-9.32,12.877-17.809c-2.425-10.172-13.442-14.762-22.343-9.264c-0.938,0.578-1.616,0.735-2.617,0.149
					c-7.53-4.399-15.079-8.771-22.659-13.085c-1.121-0.637-1.271-1.229-0.913-2.43c2.286-7.702,0.731-14.555-4.783-20.455
					c-1.078-1.154-6.136-9.231-6.841-10.72c-0.559-1.178-0.321-1.807,0.801-2.451c11.493-6.582,22.969-13.197,34.425-19.843
					c0.923-0.533,1.549-0.542,2.455,0.066c3.229,2.167,6.849,2.853,10.647,2.188c7.393-1.296,12.751-7.986,12.092-15.883
					c-0.717-8.567-9.12-14.971-17.514-13.113c-7.364,1.631-11.991,7.387-11.906,14.954c0.012,1.289-0.347,2.024-1.496,2.682
					c-11.639,6.659-23.247,13.363-34.835,20.107c-1.045,0.607-1.616,0.481-2.457-0.329c-5.46-5.26-12.03-8.214-19.525-9.151
					c-2.53-0.318-2.531-0.305-2.531-2.916c-0.001-13.686,0.033-27.372-0.041-41.057c-0.01-1.91,0.437-3.017,2.227-4.045
					c6.417-3.687,8.855-11.624,5.92-18.392c-2.961-6.827-10.525-10.474-17.619-8.313c-6.457,1.967-10.056,6.528-10.688,13.166
					c-0.487,5.122,1.936,10.812,7.781,14.007c0.898,0.49,1.524,0.921,1.521,2.153c-0.048,15.089-0.045,30.175-0.007,45.264
					c0.002,1.196-0.543,1.601-1.519,2.095c-2.919,1.471-6.051,2.758-8.528,4.808c-2.859,2.359-5.531,3.723-9.512,3.723
					c-0.388-0.012-0.638,0.025-1.042,0.017c-0.985-0.021-2.094-0.062-2.9-0.523c-11.739-6.695-23.417-13.5-35.171-20.173
					c-1.68-0.952-2.489-1.973-2.209-3.907c0.111-0.771-0.127-1.597-0.253-2.391c-1.146-7.229-8.217-13.276-16.751-11.874
					C7.532,51.81,2.216,59.386,3.598,67.495c1.762,10.356,13.58,15.598,22.496,9.933c1.006-0.639,1.702-0.689,2.733-0.088
					c8.836,5.154,17.709,10.247,26.569,15.36c1.52,0.877,3.032,1.76,4.541,2.636C49.759,106.122,48.616,117.707,56.021,130.355
					L56.021,130.355L56.021,130.355z"/>
				<path id="Shape_6_" fill="#2683FF" d="M80.502,95.502c2.33,0.206,3.489-0.577,5.19-2.159c7.349-6.829,16.018-8.943,25.535-5.782
					c9.358,3.108,15.161,9.758,17.083,19.514c0.376,1.91,1.128,3.059,2.834,4.032c4.88,2.78,7.689,8.792,6.726,13.799
					c-1.251,6.484-5.503,10.98-11.516,11.934c-3.204,0.512-6.382,0.145-9.2-1.59c-1.263-0.779-2.262-0.693-3.566-0.148
					c-8.37,3.521-16.477,2.922-24.181-1.922c-1.184-0.748-2.174-0.806-3.454-0.386c-10.857,3.547-22.149-2.614-24.906-13.44
					C57.888,106.938,67.791,94.935,80.502,95.502L80.502,95.502L80.502,95.502z"/>
				<path id="Shape_7_" fill="#2683FF" d="M176.143,158.559c0-2.429,1.745-4.192,4.135-4.188c2.302,0.012,4.263,1.91,4.285,4.158
					c0.025,2.164-2.069,4.258-4.251,4.262C177.977,162.791,176.144,160.932,176.143,158.559L176.143,158.559L176.143,158.559z"/>
				<path id="Shape_8_" fill="#2683FF" d="M95.02,18.24c0.009-2.352,1.843-4.167,4.213-4.169c2.374-0.002,4.194,1.809,4.203,4.17
					c0.006,2.264-1.971,4.266-4.194,4.238C96.98,22.457,95.013,20.479,95.02,18.24L95.02,18.24L95.02,18.24z"/>
				<path id="Shape_9_" fill="#2683FF" d="M22.31,158.576c-0.009,2.371-1.857,4.234-4.181,4.215
					c-2.195-0.021-4.225-2.068-4.234-4.277c-0.011-2.209,1.997-4.143,4.301-4.143C20.583,154.373,22.319,156.146,22.31,158.576
					L22.31,158.576L22.31,158.576z"/>
				<path id="Shape_10_" fill="#2683FF" d="M99.279,201.173c2.368,0.017,4.167,1.817,4.156,4.161
					c-0.015,2.335-1.841,4.094-4.241,4.079c-2.38-0.013-4.199-1.826-4.174-4.163C95.047,202.926,96.902,201.154,99.279,201.173
					L99.279,201.173L99.279,201.173z"/>
				<path id="Shape_11_" fill="#2683FF" d="M18.243,69.122c-2.4,0.021-4.276-1.728-4.348-4.047c-0.07-2.26,1.827-4.157,4.193-4.191
					c2.47-0.037,4.186,1.609,4.221,4.044C22.347,67.375,20.672,69.1,18.243,69.122L18.243,69.122L18.243,69.122z"/>
				<path id="Shape_12_" fill="#2683FF" d="M180.226,69.128c-2.426-0.017-4.106-1.745-4.083-4.192
					c0.024-2.429,1.745-4.081,4.215-4.049c2.368,0.033,4.253,1.913,4.197,4.185C184.499,67.374,182.61,69.145,180.226,69.128
					L180.226,69.128L180.226,69.128z"/>
			</g>
		</g>
	</g>
</g>
<g>
	<path fill="#2683FF" d="M534.752,108.706h0.083l28.155-26.568h8.605l-29.826,26.819l31.497,32.333h-8.855l-29.576-31.497h-0.083
		v31.497h-6.016V82.138h6.016V108.706z"/>
	<path fill="#2683FF" d="M587.219,141.289h-6.016V82.138h35.675v5.347h-29.659v20.469h27.57v5.347h-27.57V141.289z"/>
	<path fill="#2683FF" d="M656.813,91.662c-1.281-1.782-2.924-3.217-4.929-4.303c-2.006-1.086-4.429-1.629-7.269-1.629
		c-1.449,0-2.925,0.223-4.429,0.668c-1.504,0.447-2.869,1.128-4.094,2.047c-1.226,0.919-2.214,2.076-2.966,3.467
		c-0.752,1.393-1.128,3.037-1.128,4.929c0,1.895,0.36,3.455,1.082,4.679c0.723,1.226,1.681,2.271,2.875,3.133
		c1.194,0.864,2.556,1.574,4.083,2.13c1.527,0.557,3.124,1.115,4.791,1.671c2.055,0.668,4.123,1.393,6.206,2.172
		c2.084,0.78,3.958,1.796,5.625,3.049c1.666,1.253,3.027,2.841,4.082,4.762c1.055,1.922,1.584,4.359,1.584,7.311
		c0,2.953-0.564,5.501-1.689,7.645c-1.127,2.146-2.589,3.914-4.386,5.306c-1.8,1.393-3.854,2.423-6.165,3.091
		c-2.312,0.669-4.637,1.003-6.976,1.003c-1.783,0-3.565-0.182-5.348-0.543c-1.783-0.363-3.481-0.906-5.096-1.629
		c-1.616-0.724-3.12-1.643-4.512-2.758c-1.393-1.113-2.619-2.394-3.676-3.843l5.18-3.843c1.28,2.117,3.077,3.885,5.389,5.305
		c2.311,1.421,5.025,2.131,8.146,2.131c1.504,0,3.035-0.236,4.596-0.71c1.559-0.473,2.966-1.197,4.219-2.173
		c1.253-0.974,2.283-2.172,3.092-3.593c0.807-1.42,1.211-3.076,1.211-4.971c0-2.06-0.404-3.772-1.211-5.138
		c-0.809-1.364-1.88-2.507-3.217-3.426s-2.869-1.684-4.596-2.298c-1.727-0.612-3.537-1.225-5.431-1.838
		c-1.95-0.612-3.871-1.308-5.765-2.088c-1.894-0.779-3.592-1.796-5.096-3.05c-1.504-1.253-2.716-2.799-3.635-4.637
		s-1.378-4.094-1.378-6.767c0-2.841,0.57-5.291,1.712-7.353c1.142-2.06,2.632-3.759,4.47-5.096c1.839-1.337,3.871-2.311,6.1-2.924
		c2.227-0.612,4.428-0.919,6.6-0.919c4.011,0,7.437,0.71,10.276,2.13c2.841,1.42,4.984,3.106,6.434,5.055L656.813,91.662z"/>
</g>
</svg>
